HIERARCHY
ROOT Hips
{
	OFFSET 0.000000 0.000000 0.000000
	CHANNELS 6 Xposition Yposition Zposition Zrotation Yrotation Xrotation 
	JOINT LHipJoint
	{
		OFFSET 0.000000 0.000000 0.000000
		CHANNELS 3 Zrotation Yrotation Xrotation
		JOINT LeftUpLeg
		{
			OFFSET 1.363060 -1.794630 0.839290
			CHANNELS 3 Zrotation Yrotation Xrotation
			JOINT LeftLeg
			{
				OFFSET 2.448110 -6.726130 0.000000
				CHANNELS 3 Zrotation Yrotation Xrotation
				JOINT LeftFoot
				{
					OFFSET 2.562200 -7.039590 0.000000
					CHANNELS 3 Zrotation Yrotation Xrotation
					JOINT LeftToeBase
					{
						OFFSET 0.157640 -0.433110 2.322550
						CHANNELS 3 Zrotation Yrotation Xrotation
						End Site
						{
							OFFSET 0.000000 0.000000 0.000000
						}
					}
				}
			}
		}
	}
	JOINT RHipJoint
	{
		OFFSET 0.000000 0.000000 0.000000
		CHANNELS 3 Zrotation Yrotation Xrotation
		JOINT RightUpLeg
		{
			OFFSET -1.305520 -1.794630 0.839290
			CHANNELS 3 Zrotation Yrotation Xrotation
			JOINT RightLeg
			{
				OFFSET -2.542530 -6.985550 0.000000
				CHANNELS 3 Zrotation Yrotation Xrotation
				JOINT RightFoot
				{
					OFFSET -2.568260 -7.056230 0.000000
					CHANNELS 3 Zrotation Yrotation Xrotation
					JOINT RightToeBase
					{
						OFFSET -0.164730 -0.452590 2.363150
						CHANNELS 3 Zrotation Yrotation Xrotation
						End Site
						{
							OFFSET 0.000000 0.000000 0.000000
						}
					}
				}
			}
		}
	}
	JOINT LowerBack
	{
		OFFSET 0.000000 0.000000 0.000000
		CHANNELS 3 Zrotation Yrotation Xrotation
		JOINT Spine
		{
			OFFSET 0.028270 2.035590 -0.193380
			CHANNELS 3 Zrotation Yrotation Xrotation
			JOINT Spine1
			{
				OFFSET 0.056720 2.048850 -0.042750
				CHANNELS 3 Zrotation Yrotation Xrotation
				JOINT Neck
				{
					OFFSET 0.000000 0.000000 0.000000
					CHANNELS 3 Zrotation Yrotation Xrotation
					JOINT Neck1
					{
						OFFSET -0.054170 1.746240 0.172020
						CHANNELS 3 Zrotation Yrotation Xrotation
						JOINT Head
						{
							OFFSET 0.104070 1.761360 -0.123970
							CHANNELS 3 Zrotation Yrotation Xrotation
							End Site
							{
								OFFSET 0.000000 0.000000 0.000000
							}
						}
					}
				}
				JOINT LeftShoulder
				{
					OFFSET 0.000000 0.000000 0.000000
					CHANNELS 3 Zrotation Yrotation Xrotation
					JOINT LeftArm
					{
						OFFSET 3.362410 1.200890 -0.311210
						CHANNELS 3 Zrotation Yrotation Xrotation
						JOINT LeftForeArm
						{
							OFFSET 4.983000 -0.000000 -0.000000
							CHANNELS 3 Zrotation Yrotation Xrotation
							JOINT LeftHand
							{
								OFFSET 3.483560 -0.000000 -0.000000
								CHANNELS 3 Zrotation Yrotation Xrotation
								JOINT LeftFingerBase
								{
									OFFSET 0.000000 0.000000 0.000000
									CHANNELS 3 Zrotation Yrotation Xrotation
									JOINT LeftHandIndex1
									{
										OFFSET 0.715260 -0.000000 -0.000000
										CHANNELS 3 Zrotation Yrotation Xrotation
										End Site
										{
											OFFSET 0.000000 0.000000 0.000000
										}
									}
								}
								JOINT LThumb
								{
									OFFSET 0.000000 0.000000 0.000000
									CHANNELS 3 Zrotation Yrotation Xrotation
									End Site
									{
										OFFSET 0.000000 0.000000 0.000000
									}
								}
							}
						}
					}
				}
				JOINT RightShoulder
				{
					OFFSET 0.000000 0.000000 0.000000
					CHANNELS 3 Zrotation Yrotation Xrotation
					JOINT RightArm
					{
						OFFSET -3.136600 1.374050 -0.404650
						CHANNELS 3 Zrotation Yrotation Xrotation
						JOINT RightForeArm
						{
							OFFSET -5.241900 -0.000000 -0.000000
							CHANNELS 3 Zrotation Yrotation Xrotation
							JOINT RightHand
							{
								OFFSET -3.444170 -0.000000 -0.000000
								CHANNELS 3 Zrotation Yrotation Xrotation
								JOINT RightFingerBase
								{
									OFFSET 0.000000 0.000000 0.000000
									CHANNELS 3 Zrotation Yrotation Xrotation
									JOINT RightHandIndex1
									{
										OFFSET -0.622530 -0.000000 -0.000000
										CHANNELS 3 Zrotation Yrotation Xrotation
										End Site
										{
											OFFSET 0.000000 0.000000 0.000000
										}
									}
								}
								JOINT RThumb
								{
									OFFSET 0.000000 0.000000 0.000000
									CHANNELS 3 Zrotation Yrotation Xrotation
									End Site
									{
										OFFSET 0.000000 0.000000 0.000000
									}
								}
							}
						}
					}
				}
			}
		}
	}
}
MOTION
Frames: 7
Frame Time: 0.008333
3.110080 17.608506 2.472226 -29.398256 -29.687866 32.000423 -17.224563 -2.082528 4.887960 20.984058 -24.512529 -15.980677 1.960389 0.925492 18.144899 1.234808 6.037419 -7.918744 -0.005300 -0.000000 -31.417500 3.429094 2.907829 3.124356 -25.823924 -17.086748 -49.266947 1.436422 0.257402 -1.070322 -1.339320 -7.329092 20.766031 -3.574400 -0.000000 -69.710800 18.816004 1.163841 -5.642869 3.436318 -0.851256 -3.740494 -4.795557 -0.712382 -1.455718 19.007358 -13.410205 -2.502521 -0.953222 -0.130432 1.240374 0.000000 0.000000 0.000000 3.398094 1.708064 -1.557758 -87.316189 -15.027735 20.489379 -0.396545 -76.908139 -0.120927 14.840034 -5.134843 -0.748941 -0.186083 0.563655 0.000000 0.000000 0.000000 0.000000 0.000000 0.000000 0.000000 4.023506 -9.204786 -0.831926 43.506655 23.989316 11.280163 178.858478 55.450731 179.886759 -12.723775 11.093916 -1.393540 0.451138 -0.945043 0.000000 0.000000 0.000000 0.000000 0.000000 0.000000 0.000000 
3.087966 17.605854 2.490317 -29.874246 -30.867636 32.436870 -17.184390 -2.077092 4.727300 20.526101 -23.112277 -15.596376 1.939561 0.869558 17.689034 1.200301 5.778188 -8.047878 -0.020200 -0.000000 -31.905400 3.567714 2.772129 3.174258 -24.901692 -15.371245 -50.296459 1.533683 0.132544 1.057734 -1.257926 -6.564633 22.049663 -3.309900 -0.000000 -70.927400 18.590697 1.230110 -5.703916 3.367131 -0.768295 -3.717552 -4.814226 -0.617626 -1.287763 18.930541 -13.178359 -2.460466 -1.018596 -0.135507 1.255471 0.000000 0.000000 0.000000 3.412929 2.258950 -1.570293 -86.931848 -14.074822 20.089199 -0.400234 -77.394774 -0.118381 14.777165 -4.902867 -0.713641 -0.184539 0.552292 0.000000 0.000000 0.000000 0.000000 0.000000 0.000000 0.000000 4.382670 -8.992210 -0.931441 43.578030 25.136126 11.770496 178.894438 55.978477 179.886266 -12.734942 11.092714 -1.393857 0.446932 -0.942544 0.000000 0.000000 0.000000 0.000000 0.000000 0.000000 0.000000 
3.063569 17.602729 2.505082 -30.304218 -31.998988 32.835538 -17.134329 -2.060988 4.568383 20.066093 -21.739726 -15.242077 1.904066 0.820896 17.239541 1.154638 5.448110 -8.176863 -0.035000 -0.000000 -32.519800 3.719755 2.614799 3.239454 -24.323862 -13.379662 -50.995195 1.574172 -0.000253 3.122459 -1.166732 -5.666621 23.366953 -2.943600 -0.000000 -71.960400 18.329534 1.257361 -5.754622 3.293337 -0.720389 -3.694305 -4.844394 -0.559609 -1.124438 18.850445 -12.927170 -2.417737 -1.086569 -0.140828 1.271338 0.000000 0.000000 0.000000 3.434974 2.793673 -1.573955 -86.484401 -13.142863 19.656113 -0.404634 -77.849447 -0.116035 14.739078 -4.679859 -0.681041 -0.183482 0.541077 0.000000 0.000000 0.000000 0.000000 0.000000 0.000000 0.000000 4.748170 -8.769429 -1.032950 43.720186 26.279175 12.278770 178.935329 56.507013 179.885308 -12.793728 11.095827 -1.399973 0.444048 -0.940110 0.000000 0.000000 0.000000 0.000000 0.000000 0.000000 0.000000 
3.037404 17.599614 2.516768 -30.670731 -33.048593 33.188192 -17.072048 -2.032758 4.421453 19.612096 -20.411576 -14.954279 1.856797 0.777393 16.815350 1.096784 5.044375 -8.275925 -0.046000 0.000000 -33.457300 3.880517 2.447474 3.318073 -23.948339 -11.262765 -51.488926 1.580536 -0.139856 5.186577 -1.055796 -4.545311 24.552498 -2.412100 -0.000000 -72.713200 18.029171 1.244761 -5.809258 3.214083 -0.708582 -3.676985 -4.886177 -0.539636 -0.976879 18.778220 -12.657033 -2.370203 -1.157824 -0.146522 1.289434 0.000000 0.000000 0.000000 3.471166 3.256958 -1.569095 -85.986228 -12.204102 19.164969 -0.409279 -78.271746 -0.113914 14.724226 -4.480966 -0.652743 -0.182546 0.530265 0.000000 0.000000 0.000000 0.000000 0.000000 0.000000 0.000000 5.129415 -8.536543 -1.130616 43.915428 27.374451 12.789926 178.977791 57.022679 179.883933 -12.901679 11.098495 -1.411385 0.442852 -0.937604 0.000000 0.000000 0.000000 0.000000 0.000000 0.000000 0.000000 
3.010642 17.596906 2.525723 -30.951852 -33.981680 33.467974 -16.997737 -1.991727 4.294699 19.167047 -19.177255 -14.731679 1.798734 0.738258 16.430533 1.029327 4.581844 -8.352950 -0.053900 -0.000000 -34.507399 4.042596 2.281150 3.391720 -23.626602 -9.168563 -51.833814 1.573428 -0.285384 7.264756 -0.923333 -3.185388 25.501368 -1.703000 0.000000 -73.276900 17.698364 1.192257 -5.860442 3.131603 -0.732709 -3.663949 -4.937260 -0.557293 -0.844510 18.714332 -12.395409 -2.326431 -1.229936 -0.152295 1.307099 0.000000 0.000000 0.000000 3.504418 3.645638 -1.556184 -85.450805 -11.294433 18.654907 -0.414286 -78.625863 -0.112062 14.739840 -4.318881 -0.630846 -0.181987 0.520072 0.000000 0.000000 0.000000 0.000000 0.000000 0.000000 0.000000 5.520486 -8.321556 -1.221506 44.149223 28.412037 13.289191 179.019462 57.522634 179.882205 -13.057379 11.098923 -1.427790 0.443469 -0.934924 0.000000 0.000000 0.000000 0.000000 0.000000 0.000000 0.000000 
2.983321 17.594940 2.532070 -31.127100 -34.781055 33.655791 -16.906757 -1.936396 4.194447 18.719569 -18.059392 -14.581282 1.731020 0.701152 16.093759 0.953958 4.071583 -8.398698 -0.057800 -0.000000 -35.686101 4.209077 2.125983 3.450810 -23.242376 -7.230282 -52.089886 1.567224 -0.437856 9.385282 -0.773025 -1.627178 26.150816 -0.847500 -0.000000 -73.700500 17.325560 1.100644 -5.911617 3.043229 -0.790568 -3.657020 -4.997670 -0.610346 -0.730256 18.669369 -12.156054 -2.288182 -1.302449 -0.158108 1.323878 0.000000 0.000000 0.000000 3.544431 3.935708 -1.537183 -84.887839 -10.410246 18.131920 -0.419322 -78.904058 -0.110467 14.784748 -4.202307 -0.616150 -0.181672 0.510593 0.000000 0.000000 0.000000 0.000000 0.000000 0.000000 0.000000 5.929091 -8.137988 -1.301858 44.413326 29.369990 13.767894 179.057034 57.998902 179.880221 -13.254795 11.094230 -1.448189 0.445945 -0.932045 0.000000 0.000000 0.000000 0.000000 0.000000 0.000000 0.000000 
2.955165 17.593934 2.535945 -31.178233 -35.442091 33.735749 -16.794045 -1.865720 4.124017 18.253482 -17.074524 -14.500438 1.653967 0.663828 15.809461 0.873164 3.527868 -8.414825 -0.058000 -0.000001 -36.916900 4.385652 1.988923 3.487524 -22.716805 -5.547512 -52.280423 1.568420 -0.596802 11.543399 -0.614457 0.027480 26.498731 0.079800 -0.000001 -74.078300 16.897109 0.972908 -5.964205 2.945730 -0.877580 -3.656722 -5.067285 -0.694125 -0.634276 18.652130 -11.954649 -2.257954 -1.374643 -0.163889 1.339019 0.000000 0.000000 0.000000 3.601670 4.113712 -1.514624 -84.304575 -9.551358 17.608035 -0.424038 -79.101592 -0.109089 14.855667 -4.136228 -0.609257 -0.181483 0.501848 0.000000 0.000000 0.000000 0.000000 0.000000 0.000000 0.000000 6.360766 -8.000797 -1.368769 44.704551 30.235247 14.221560 179.087377 58.445343 179.878099 -13.484525 11.082463 -1.471376 0.450197 -0.929009 0.000000 0.000000 0.000000 0.000000 0.000000 0.000000 0.000000 
